<svg id="Layer_1" data-name="Layer 1" xmlns="http://www.w3.org/2000/svg" viewBox="0 0 850 507.4"><title>logo</title><path id="clouds" d="M831.27,569.51A63.76,63.76,0,0,0,786,550.78a83.78,83.78,0,0,0-10.09.61,201.52,201.52,0,0,1-64,75.7c2.86-2.55,5.67-5.16,8.38-7.87a201.87,201.87,0,0,0,57.2-113.94,204.62,204.62,0,0,0-1.15-65.43,202.5,202.5,0,0,0-199.15-166c-25,0-46.11,3-64.44,8.38l0,0-0.12-.14a157.47,157.47,0,0,0-46.42,22.34c2.6-2.34,5.24-4.64,8-6.82a159.25,159.25,0,0,1,34-21.09,170.16,170.16,0,0,0-13.88-14.78A176,176,0,0,0,475.15,246l-0.14-.1a180.67,180.67,0,0,0-21.12-12.85l-0.49-.25q-7.22-3.72-14.79-6.8l-0.39-.16q-3.65-1.47-7.37-2.78l-0.93-.33c-2.49-.87-5-1.69-7.54-2.45l-0.08,0c-2.49-.74-5-1.43-7.53-2.06l-1-.25q-3.69-.91-7.44-1.66l-1.3-.25c-2.54-.49-5.1-0.95-7.67-1.33l-0.22,0c-2.5-.37-5-0.67-7.55-0.94l-1.37-.14q-3.74-.36-7.52-0.56l-1.48-.07c-2.6-.12-5.22-0.2-7.84-0.2h0A171.61,171.61,0,0,0,199.81,384.41c0,2.77.1,5.54,0.26,8.33,0,0.4,0,.81.06,1.21,0.17,2.64.42,5.28,0.72,7.93q0.09,0.79.19,1.57,0.49,3.93,1.17,7.88c0.09,0.49.18,1,.27,1.48,0.49,2.71,1,5.41,1.65,8.13,0.05,0.23.11,0.46,0.17,0.69,0.59,2.55,1.25,5.1,2,7.65,0.15,0.54.29,1.08,0.44,1.61,0.72,2.54,1.51,5.08,2.34,7.62,0.22,0.68.45,1.37,0.68,2.05q1.26,3.73,2.65,7.45c0.26,0.68.53,1.36,0.79,2,1,2.49,2,5,3,7.46,0.22,0.51.45,1,.67,1.54q1.48,3.42,3.08,6.83c0.29,0.61.56,1.22,0.85,1.83a324.19,324.19,0,0,0,38.46,60.85c-6-6.36-11.84-12.92-17.41-19.69a338.3,338.3,0,0,1-37.63-55.83c-17.44-12.9-39-20.61-70.75-20.61A123.58,123.58,0,0,0,9.86,556,121.9,121.9,0,0,0,58.51,653.7C53.85,655.89,27.58,675,0,678.7H786A64,64,0,0,0,849.34,624a64.69,64.69,0,0,0,.62-11.43A63.75,63.75,0,0,0,831.27,569.51Z" transform="translate(0 -171.3)" style="fill:#83c0db"/><g id="stream"><path d="M239,678.7c-61.9-47.81,193.63-188.64,193.63-188.64L403,474.56S198.07,657,0,678.7H239Z" transform="translate(0 -171.3)" style="fill:#fff"/></g><g id="rocket"><path id="rocket-2" data-name="rocket" d="M759.83,172.73l-0.82-.11c0-.54,0-0.82,0-0.82l-0.86.72C743,170.73,625,160.37,511.84,254.75c0,0-29.13,12.9-88.9,10C340.52,315.54,314.5,436.94,314.5,436.94s33.25-36.46,61.28-37.9L403,474.56l67.47,37c-6.2,27.37-47.81,53.91-47.81,53.91s124.06-4.91,188.2-77.45c7.32-59.39,25-85.89,25-85.89C748.21,306.75,758.15,188.67,759,173.45ZM646.39,316.27a36.77,36.77,0,1,1,4.46-51.81A36.77,36.77,0,0,1,646.39,316.27Z" transform="translate(0 -171.3)" style="fill:#7090a7"/><path d="M610.89,488c7.32-59.39,25-85.89,25-85.89C748.21,306.75,758.15,188.67,759,173.45l0.86-.72-0.82-.11c0-.54,0-0.82,0-0.82l-0.86.72c-1.24-.15-3.19-0.35-5.76-0.55l-103.9,90c0.8,0.79,1.58,1.63,2.32,2.51a36.77,36.77,0,1,1-56.27,47.36c-0.52-.61-1-1.24-1.47-1.88L403,474.56l67.47,37c-6.2,27.37-47.81,53.91-47.81,53.91S546.74,560.57,610.89,488Z" transform="translate(0 -171.3)" style="fill:#3c6787"/><polygon points="511.84 83.45 495.55 88.32 390.91 212.43 511.84 83.45" style="fill:#3c6787"/><circle cx="622.71" cy="288.14" r="36.68" transform="translate(290.72 717.31) rotate(-85.89)" style="fill:#fff"/><circle cx="622.71" cy="288.14" r="29.56" transform="translate(290.72 717.31) rotate(-85.89)" style="fill:#e3a35d"/><polygon points="635.29 231.67 628.14 247.09 490.36 332.93 635.29 231.67" style="fill:#7090a7"/></g></svg>